<?xml version="1.0" encoding="utf-8"?>
<!-- Designed by Vexels.com - 2020 All Rights Reserved - https://vexels.com/terms-and-conditions/  -->
<svg version="1.1" id="Layer_1" xmlns="http://www.w3.org/2000/svg" xmlns:xlink="http://www.w3.org/1999/xlink" x="0px" y="0px"
	 viewBox="0 0 1200 1200" enable-background="new 0 0 1200 1200" xml:space="preserve">
<path d="M195.8,737.616c-48.73-21.058-86.64-54.444-113.73-100.212c-27.09-45.741-37.011-94.471-29.788-146.243
	c15.635-77.011,50.556-137.487,104.709-181.455c54.18-43.915,116.138-61.058,185.979-51.455
	c54.153,9.656,98.677,34.312,133.598,74.021c34.894,39.735,55.952,88.466,63.175,146.243c7.222,39.735,7.222,96.614,0,170.635
	s-32.487,141.429-75.82,202.196c-43.333,60.794-116.164,91.799-218.466,92.989c-10.82,0-17.46-6.005-19.841-18.042
	c-2.434-12.037-1.217-25.582,3.598-40.635c4.788-15.026,13.228-27.354,25.265-37.011c21.667-18.069,42.143-37.91,61.402-59.577
	c19.233-21.667,33.095-41.534,41.534-59.577C298.419,755.975,244.557,758.674,195.8,737.616z M800.642,737.616
	c-48.757-21.058-86.667-54.444-113.73-100.212c-27.09-45.741-37.011-94.471-29.788-146.243
	c15.608-77.011,50.529-137.487,104.709-181.455c54.153-43.915,116.138-61.058,185.952-51.455
	c54.18,9.656,98.677,34.312,133.624,74.021c34.894,39.735,55.952,88.466,63.175,146.243c7.222,39.735,7.222,96.614,0,170.635
	c-7.222,74.021-32.487,141.429-75.82,202.196c-43.333,60.794-116.164,91.799-218.466,92.989c-10.847,0-17.46-6.005-19.868-18.042
	c-2.407-12.037-1.217-25.582,3.624-40.635c4.788-15.026,13.227-27.354,25.265-37.011c21.667-18.069,42.116-37.91,61.402-59.577
	c19.233-21.667,33.069-41.534,41.508-59.577C903.234,755.975,849.398,758.674,800.642,737.616z"/>
</svg>
